<?xml version="1.0" encoding="UTF-8" standalone="no"?>
<!-- Created with Inkscape (http://www.inkscape.org/) -->

<svg
   width="312.58759mm"
   height="422.73032mm"
   viewBox="0 0 312.58759 422.73033"
   version="1.1"
   id="svg1"
   xml:space="preserve"
   xmlns="http://www.w3.org/2000/svg"
   xmlns:svg="http://www.w3.org/2000/svg"><defs
     id="defs1" /><g
     id="g52"
     transform="translate(-16.822938,-0.33072916)"><path
       id="path35"
       style="display:inline;opacity:1;fill:#cccccc;fill-opacity:1;fill-rule:nonzero;stroke:#000000;stroke-width:0;stroke-linecap:butt;stroke-linejoin:round;stroke-miterlimit:400;stroke-dasharray:none;stroke-opacity:1"
       d="m 211.74293,183.23907 54.46272,-20.86889 z m 19.34191,54.46273 57.00771,-22.9049 z M 81.948591,296.23649 139.9743,273.33162 Z M 60.570699,243.30077 119.6144,219.88687 Z M 224.49868,211.93902 a 92.801307,51.123202 69.603389 0 1 -17.39382,103.2024 92.801307,51.123202 69.603389 0 1 -79.8863,-71.5278 92.801307,51.123202 69.603389 0 1 17.39382,-103.20241 92.801307,51.123202 69.603389 0 1 79.8863,71.52781 z m -98.26731,187.6876 29.52185,14.18828 6.10797,7.12597 150.66324,-58.02569 -0.509,-10.68896 11.19795,-29.01286 z M 22.523142,137.81105 118.97815,396.509 l 7.69859,3.18123 196.53663,-76.47687 4.07198,-9.16194 L 225.48587,57.516705 Z m -2.163239,-50.772495 -1.017995,-9.16195 166.442162,-63.115681 7.63496,7.125962 -4.07198,7.634962 -162.879178,63.624677 z m 5.598972,5.08998 L 22.504506,137.69471 225.45141,57.463995 188.83805,27.994855 Z M 132.84833,15.778919 h -7.12596 l -12.21594,11.197941 4.07198,5.089975 7.63496,-4.07198 7.63496,-7.125964 z M 89.583552,49.881745 111.97944,16.796911 145.06427,2.544984 l 6.61697,4.07198 -17.81491,27.994858 z" /><path
       style="opacity:1;fill:#9966cc;fill-opacity:1;fill-rule:nonzero;stroke:#9966cc;stroke-width:5;stroke-linecap:butt;stroke-linejoin:round;stroke-miterlimit:400;stroke-dasharray:none;stroke-opacity:1"
       d="m 312.55727,1104.7248 c -0.49304,-1.3226 -15.93845,-42.6596 -34.32313,-91.86 -28.74091,-76.91542 -41.15086,-90.68119 -38.46629,-91.94266 1.71724,-0.80694 55.79959,-18.05971 110.2074,-39.58644 l 98.9233,-39.13953 7.17341,28.10217 c 11.57905,45.36145 28.90939,90.41956 51.57879,134.10256 6.45251,12.4338 11.52336,22.7447 11.26853,22.9133 -1.7291,1.144 -202.76883,79.816 -203.96235,79.8157 -0.82676,-2e-4 -1.90661,-1.0825 -2.39966,-2.4051 z"
       id="path32"
       transform="scale(0.26458333)" /><path
       style="opacity:1;fill:#9966cc;fill-opacity:1;fill-rule:nonzero;stroke:#9966cc;stroke-width:5;stroke-linecap:butt;stroke-linejoin:round;stroke-miterlimit:400;stroke-dasharray:none;stroke-opacity:1"
       d="M 877.20844,866.91208 C 866.60089,820.63645 847.5677,768.44977 825.2108,724.34091 c -7.22836,-14.26112 -12.92791,-26.14387 -12.66567,-26.40611 0.50124,-0.50124 172.08802,-66.47026 184.32343,-70.86581 l 7.08904,-2.54671 35.9214,90.46586 c 19.7568,49.75623 35.1793,91.16342 34.2721,92.01598 -0.9072,0.85257 -44.6347,18.84979 -97.17232,39.99385 l -95.52289,38.44371 z"
       id="path33"
       transform="scale(0.26458333)" /><path
       style="opacity:1;fill:#9966cc;fill-opacity:1;fill-rule:nonzero;stroke:#9966cc;stroke-width:5;stroke-linecap:butt;stroke-linejoin:round;stroke-miterlimit:400;stroke-dasharray:none;stroke-opacity:1"
       d="M 725.26122,1185.0712 C 615.64643,1163.199 500.66131,1006.609 465.50594,831.32917 c -13.31737,-66.39861 -12.88407,-138.4736 1.13498,-188.79005 6.21,-22.28863 21.07651,-52.64344 32.97634,-67.33195 25.78616,-31.82903 62.50184,-46.03346 100.78706,-38.99213 104.6083,19.23932 212.26401,154.5746 255.7042,321.44875 4.17985,16.05675 8.01548,32.65688 8.52365,36.88917 0.50816,4.2323 2.38339,15.0535 4.16719,24.04712 4.86335,24.52026 4.97212,109.67232 0.17077,133.70202 -15.37856,76.9665 -49.42709,121.9646 -100.42409,132.7191 -16.06636,3.3881 -26.49504,3.4002 -43.28482,0.05 z"
       id="path34"
       transform="scale(0.26458333)" /></g><g
     id="g62"
     transform="translate(-16.822938,-0.33072916)"><path
       d="m 184.17463,336.45884 0.96086,-12.92894 6.4029,0.47585 -0.0915,1.23133 -5.03085,-0.37388 -0.32421,4.36242 4.04579,0.30067 -0.0915,1.23133 -4.04579,-0.30068 -0.36211,4.87254 5.03085,0.37388 -0.0915,1.23133 z m 11.93459,0.4585 q -0.4403,0.0243 -0.88449,-0.0219 -0.42658,-0.0471 -0.84138,-0.20089 -0.41479,-0.15376 -0.76498,-0.41709 -0.33354,-0.28191 -0.58291,-0.63913 -0.25034,-0.37483 -0.37934,-0.79169 -0.12997,-0.43447 -0.15427,-0.87477 l -0.004,-0.0704 1.37374,-0.0758 0.003,0.0528 q 0.0224,0.40508 0.18463,0.78477 0.16131,0.36208 0.47529,0.60974 0.31399,0.24766 0.70826,0.34956 0.3933,0.0843 0.79838,0.0619 0.40507,-0.0223 0.80335,-0.16799 0.39827,-0.14564 0.66451,-0.44299 0.28289,-0.31593 0.40143,-0.72878 0.11854,-0.41285 0.0962,-0.81793 -0.0253,-0.45792 -0.24234,-0.86992 -0.19944,-0.41297 -0.53396,-0.71249 -0.33548,-0.31713 -0.73558,-0.52471 -0.40108,-0.22518 -0.81782,-0.41417 -0.41674,-0.18899 -0.81684,-0.39657 -0.40011,-0.20757 -0.7679,-0.46993 -0.36779,-0.26235 -0.70328,-0.57948 -0.31787,-0.31811 -0.55157,-0.71153 -0.2337,-0.39341 -0.38128,-0.82691 -0.12998,-0.43447 -0.15525,-0.89239 -0.0233,-0.42269 0.0414,-0.85024 0.0814,-0.44613 0.25372,-0.84429 0.18996,-0.39913 0.47187,-0.73267 0.29953,-0.33451 0.6763,-0.54963 0.3758,-0.23273 0.79461,-0.3265 0.43544,-0.11236 0.87574,-0.13666 0.42269,-0.0233 0.84927,0.0238 0.44419,0.0462 0.84235,0.2185 0.39718,0.15474 0.71311,0.43762 0.33354,0.28191 0.56627,0.65772 0.23176,0.35819 0.34315,0.77602 0.129,0.41686 0.15232,0.83955 l 0.004,0.0704 -1.37374,0.0758 -0.003,-0.0528 q -0.0204,-0.36985 -0.1641,-0.7329 -0.14467,-0.38067 -0.42343,-0.63027 -0.27974,-0.26721 -0.67401,-0.36911 -0.37665,-0.10288 -0.76412,-0.0815 -0.38747,0.0214 -0.76716,0.18366 -0.37969,0.16228 -0.62735,0.47626 -0.24863,0.29638 -0.35053,0.69065 -0.1019,0.39427 -0.0795,0.79935 0.0243,0.4403 0.22472,0.87088 0.21706,0.412 0.53493,0.73011 0.33451,0.29952 0.73559,0.52471 0.41771,0.2066 0.81684,0.39656 0.41577,0.17138 0.81684,0.39656 0.41772,0.20661 0.78551,0.46896 0.36779,0.26235 0.68567,0.58046 0.31787,0.31811 0.55157,0.71152 0.25034,0.37483 0.38128,0.82692 0.14759,0.43349 0.17189,0.8738 0.0253,0.45791 -0.0561,0.90405 -0.0823,0.42852 -0.27133,0.84526 -0.18996,0.39913 -0.5071,0.73461 -0.3181,0.31788 -0.71249,0.53397 -0.37678,0.21511 -0.8308,0.31083 -0.43544,0.11236 -0.87575,0.13666 z m 8.08417,-1.06895 -2.15126,-11.53091 -2.65298,0.49496 -0.22644,-1.21378 6.65845,-1.24224 0.22645,1.21378 -2.65298,0.49496 2.15126,11.53091 z m 9.2615,-2.16482 q -0.26845,0.0871 -0.54734,0.0849 -0.27344,0.0145 -0.53466,-0.10468 -0.24988,-0.14145 -0.41543,-0.36589 -0.14877,-0.2299 -0.23587,-0.49834 -0.0871,-0.26844 -0.10165,-0.54189 0.002,-0.27888 0.1269,-0.52332 0.136,-0.26666 0.36589,-0.41543 0.22445,-0.16555 0.49289,-0.25266 0.26845,-0.0871 0.54734,-0.0849 0.27344,-0.0145 0.52332,0.1269 0.26122,0.11923 0.40999,0.34912 0.16555,0.22445 0.25265,0.49289 0.0871,0.26844 0.0849,0.54733 0.0145,0.27344 -0.12146,0.5401 -0.12467,0.24444 -0.35456,0.39321 -0.22445,0.16555 -0.49289,0.25266 z m 8.00321,-3.32237 -4.8851,-10.29445 -1.44291,2.63713 -1.14815,-0.56804 1.91804,-3.48737 1.24298,-0.58984 5.55812,11.71272 z m 7.96623,-4.26326 q -0.38552,0.2484 -0.80925,0.43749 -0.4089,0.17954 -0.85503,0.23618 -0.44612,0.0566 -0.89026,-0.0139 -0.45369,-0.0854 -0.85663,-0.28737 -0.40295,-0.20201 -0.73076,-0.51537 -0.33736,-0.32819 -0.57621,-0.69888 l -0.01,-0.0148 1.15654,-0.7452 q 0.22929,0.35586 0.56765,0.62046 0.35319,0.25505 0.75812,0.32987 0.40493,0.0748 0.81284,-0.0411 0.4079,-0.11595 0.76376,-0.34524 0.37069,-0.23885 0.64057,-0.60159 0.2847,-0.37229 0.34041,-0.80688 0.061,-0.45896 -0.0741,-0.89653 -0.13506,-0.43756 -0.38346,-0.82308 -0.20063,-0.31137 -0.46584,-0.56015 -0.25995,-0.27317 -0.58019,-0.44452 -0.3298,-0.18618 -0.70079,-0.24091 -0.36572,-0.0791 -0.72388,-0.0162 -0.3677,0.0481 -0.69819,0.21906 -0.34004,0.15614 -0.65141,0.35678 l -0.66878,-1.03793 q 0.28173,-0.18152 0.54434,-0.3927 0.26261,-0.21118 0.4478,-0.47739 0.19047,-0.29059 0.27385,-0.6171 0.0738,-0.34134 0.03,-0.66984 -0.029,-0.33805 -0.15119,-0.65799 -0.12221,-0.31993 -0.30373,-0.60165 -0.21019,-0.32621 -0.50934,-0.59509 -0.29388,-0.29326 -0.67343,-0.4264 -0.37956,-0.13314 -0.79174,-0.0564 -0.39737,0.0672 -0.7384,0.28693 -0.3262,0.21018 -0.56115,0.52943 -0.22967,0.29487 -0.29922,0.67542 -0.0547,0.371 0.0421,0.74925 0.11167,0.3687 0.32186,0.69491 l 0.0191,0.0296 -1.15654,0.7452 -0.0287,-0.0445 q -0.22929,-0.35586 -0.38445,-0.75949 -0.14033,-0.41318 -0.17786,-0.82965 -0.0471,-0.4313 0.0426,-0.84578 0.0949,-0.43886 0.31076,-0.78777 0.22112,-0.37329 0.53876,-0.66189 0.30809,-0.30343 0.66395,-0.53273 0.37069,-0.23884 0.77432,-0.394 0.41845,-0.16471 0.84448,-0.18741 0.43129,-0.0471 0.86488,0.0722 0.42404,0.10448 0.80688,0.34042 0.37329,0.22111 0.68627,0.54403 0.30343,0.30809 0.54228,0.67878 0.25796,0.40034 0.40257,0.85273 0.15943,0.44284 0.19597,0.9229 0.027,0.46523 -0.11243,0.93276 -0.12458,0.45797 -0.37534,0.85037 0.50543,-0.0949 1.03754,-0.0181 0.53738,0.0524 0.99864,0.27981 0.47609,0.21783 0.8665,0.59577 0.39568,0.35357 0.67274,0.78357 0.25796,0.40034 0.42695,0.858 0.17426,0.43329 0.22563,0.90379 0.0418,0.45568 -0.0488,0.93375 -0.1002,0.46325 -0.33186,0.8853 -0.22638,0.39767 -0.57895,0.72976 -0.33775,0.32254 -0.72326,0.57094 z m 7.0956,-5.25893 q -0.35026,0.29604 -0.74607,0.5382 -0.38234,0.23076 -0.81743,0.34446 -0.4351,0.11369 -0.88463,0.10101 -0.46091,-0.0261 -0.88654,-0.17451 -0.42562,-0.14836 -0.79111,-0.41683 -0.37687,-0.28195 -0.66152,-0.61874 l -0.0114,-0.0135 1.05079,-0.88812 q 0.27327,0.32332 0.64293,0.54208 0.38312,0.20737 0.79432,0.22935 0.4112,0.022 0.80075,-0.1456 0.38955,-0.16758 0.71287,-0.44084 0.33679,-0.28466 0.55764,-0.67917 0.23431,-0.4059 0.23352,-0.84404 0.001,-0.463 -0.18905,-0.87949 -0.19036,-0.4165 -0.4864,-0.76676 -0.23911,-0.28291 -0.53419,-0.49541 -0.29299,-0.23736 -0.63266,-0.36599 -0.35105,-0.1421 -0.72601,-0.14853 -0.37287,-0.0313 -0.71992,0.0773 -0.35843,0.0951 -0.66411,0.30726 -0.31707,0.1987 -0.59997,0.43781 l -0.79703,-0.94302 q 0.25596,-0.21634 0.48915,-0.45962 0.23319,-0.24328 0.3825,-0.53115 0.15141,-0.31272 0.19199,-0.64726 0.0292,-0.34801 -0.0566,-0.66812 -0.0723,-0.33149 -0.23477,-0.633 -0.16245,-0.3015 -0.37878,-0.55746 -0.2505,-0.29638 -0.58182,-0.52444 -0.32924,-0.25292 -0.7228,-0.336 -0.39355,-0.0831 -0.79241,0.0462 -0.38538,0.11787 -0.69522,0.37975 -0.29638,0.2505 -0.4882,0.59738 -0.18973,0.32202 -0.20962,0.70836 -0.006,0.37496 0.13838,0.73756 0.15828,0.35123 0.40877,0.6476 l 0.0228,0.0269 -1.0508,0.88812 -0.0341,-0.0404 q -0.27327,-0.32332 -0.47918,-0.70357 -0.19244,-0.39164 -0.28336,-0.79979 -0.10231,-0.42162 -0.0669,-0.84421 0.0375,-0.44744 0.20658,-0.82127 0.17113,-0.39868 0.4489,-0.72583 0.26639,-0.34063 0.58971,-0.6139 0.3368,-0.28465 0.71705,-0.49056 0.39372,-0.2173 0.81326,-0.29475 0.42162,-0.1023 0.86698,-0.0399 0.43397,0.0489 0.84404,0.23353 0.39868,0.17113 0.7507,0.45099 0.34062,0.26639 0.62528,0.60318 0.30742,0.36374 0.50916,0.7937 0.21521,0.41858 0.31335,0.88992 0.0867,0.45787 0.009,0.93947 -0.0645,0.47022 -0.26255,0.89167 0.48898,-0.15923 1.02655,-0.15168 0.53966,-0.0173 1.02639,0.14869 0.5002,0.15461 0.93609,0.47906 0.43797,0.29959 0.76817,0.69027 0.30742,0.36373 0.53402,0.79579 0.22868,0.40719 0.34029,0.86715 0.10022,0.44648 0.072,0.93225 -0.0396,0.4723 -0.21492,0.9207 -0.17322,0.42354 -0.48002,0.79832 -0.29333,0.3634 -0.6436,0.65944 z m 4.98165,-4.83111 -6.17862,-10.63038 -3.46026,3.79124 -0.91198,-0.83236 4.42342,-4.84654 0.91198,0.83237 6.16673,10.64341 z"
       id="text58"
       style="font-size:17.6389px;font-family:'Iosevka Nerd Font Mono';-inkscape-font-specification:'Iosevka Nerd Font Mono';stroke:#cdcdcd;stroke-width:0;stroke-linejoin:round;stroke-miterlimit:400"
       aria-label="EST.1337" /><path
       style="font-size:17.6389px;font-family:'Iosevka Nerd Font Mono';-inkscape-font-specification:'Iosevka Nerd Font Mono';stroke:#cdcdcd;stroke-width:0;stroke-linejoin:round;stroke-miterlimit:400"
       d="m 127.41198,144.48022 -4.77595,-7.83071 1.17461,-0.71639 0.38575,0.63248 q -0.0257,-0.21157 -0.003,-0.4114 0.0136,-0.21488 0.0848,-0.40295 0.0863,-0.19726 0.22439,-0.34347 0.15316,-0.15539 0.33387,-0.2656 0.22588,-0.13777 0.48263,-0.19106 0.25675,-0.0533 0.49919,0.005 0.25749,0.0496 0.4823,0.18103 0.22482,0.13148 0.42282,0.32063 -0.0684,-0.24757 -0.0823,-0.50763 -0.0232,-0.27511 0.0356,-0.51755 0.0738,-0.25162 0.22365,-0.44631 0.16491,-0.20388 0.39079,-0.34165 0.22589,-0.13777 0.49182,-0.176 0.27181,-0.0625 0.53849,0.002 0.2575,0.0496 0.47644,0.20528 0.23399,0.14654 0.432,0.33568 0.18882,0.17409 0.34164,0.39079 0.16789,0.20752 0.30566,0.43341 l 3.6187,5.93327 -1.17461,0.71639 -3.6187,-5.93327 q -0.10103,-0.16565 -0.22299,-0.29787 -0.11609,-0.15647 -0.28323,-0.26113 -0.16714,-0.10467 -0.37284,-0.10318 -0.19064,-0.008 -0.35629,0.0933 -0.15059,0.0918 -0.24607,0.27405 -0.0804,0.17301 -0.0639,0.36953 0.0165,0.19651 0.0875,0.38053 0.0768,0.15977 0.17782,0.32542 l 3.6187,5.93328 -1.17461,0.71639 -3.6187,-5.93327 q -0.10103,-0.16565 -0.22299,-0.29787 -0.11609,-0.15647 -0.28323,-0.26114 -0.16714,-0.10467 -0.37284,-0.10318 -0.19064,-0.008 -0.34123,0.0842 -0.16565,0.10103 -0.26113,0.28323 -0.0804,0.17301 -0.0639,0.36952 0.0165,0.19652 0.0875,0.38054 0.0768,0.15977 0.17782,0.32542 l 3.6187,5.93327 z m 10.42118,-5.60486 q -0.40295,0.17915 -0.83993,0.23831 -0.43699,0.0591 -0.85071,-0.0465 -0.40478,-0.12889 -0.76479,-0.37421 -0.36718,-0.26143 -0.66094,-0.57481 -0.28481,-0.33667 -0.50514,-0.70199 -0.21138,-0.38861 -0.38337,-0.77544 l -2.29309,-5.15766 1.25718,-0.55895 2.29309,5.15767 q 0.12182,0.274 0.27588,0.53367 0.14689,0.24355 0.34213,0.46561 0.18808,0.20593 0.43346,0.36709 0.2615,0.15398 0.54269,0.222 0.28119,0.068 0.57491,0.034 0.28654,-0.0502 0.56054,-0.17201 0.274,-0.12182 0.50322,-0.30094 0.22206,-0.19525 0.35993,-0.44958 0.13787,-0.25433 0.18261,-0.54448 0.0609,-0.2973 0.034,-0.5749 -0.0341,-0.29371 -0.11649,-0.56593 -0.0896,-0.28833 -0.2114,-0.56233 l -2.2931,-5.15766 1.25718,-0.55895 3.72628,8.38121 -1.25718,0.55894 -0.6521,-1.46671 q 0.0215,0.3958 -0.0518,0.79519 -0.0734,0.3994 -0.27929,0.7612 -0.1898,0.35463 -0.51751,0.61615 -0.31159,0.25436 -0.66618,0.41201 z m 5.27911,-2.38112 -2.61439,-8.79175 1.31876,-0.39215 0.21116,0.7101 q 0.0292,-0.21112 0.10234,-0.39848 0.0681,-0.20426 0.18504,-0.36786 0.13388,-0.16863 0.30477,-0.27466 0.18781,-0.11105 0.39069,-0.17138 0.25361,-0.0754 0.51545,-0.0613 0.26184,0.0142 0.48119,0.13295 0.23626,0.11376 0.41997,0.29836 0.18371,0.1846 0.32675,0.4181 -0.003,-0.25681 0.0502,-0.5118 0.048,-0.27189 0.16676,-0.49124 0.1357,-0.22438 0.33036,-0.37427 0.21156,-0.15493 0.46517,-0.23034 0.25361,-0.0754 0.52047,-0.0444 0.27875,0.009 0.52003,0.1398 0.23626,0.11376 0.40809,0.3203 0.18874,0.2015 0.33178,0.435 0.13802,0.21659 0.23034,0.46517 0.10923,0.24356 0.18464,0.49716 l 1.9809,6.66144 -1.31876,0.39216 -1.9809,-6.66144 q -0.0553,-0.18598 -0.13939,-0.34499 -0.0722,-0.18096 -0.20703,-0.32489 -0.13481,-0.14393 -0.33405,-0.1951 -0.18233,-0.0562 -0.36831,-8.9e-4 -0.16907,0.0503 -0.30798,0.202 -0.122,0.14669 -0.15625,0.3409 -0.0343,0.19421 -0.0128,0.39024 0.0334,0.1741 0.0887,0.36008 l 1.9809,6.66144 -1.31876,0.39216 -1.9809,-6.66144 q -0.0553,-0.18598 -0.1394,-0.34499 -0.0722,-0.18096 -0.20702,-0.32489 -0.13481,-0.14393 -0.33405,-0.1951 -0.18233,-0.0562 -0.3514,-0.006 -0.18598,0.0553 -0.32489,0.20703 -0.122,0.14669 -0.15626,0.3409 -0.0343,0.19421 -0.0128,0.39024 0.0334,0.1741 0.0887,0.36008 l 1.9809,6.66144 z m 12.01306,-2.83458 q -0.38312,0.0617 -0.77465,0.0712 -0.38873,0.0269 -0.77407,-0.0361 -0.38814,-0.0804 -0.75268,-0.23607 -0.36454,-0.15567 -0.65603,-0.41243 -0.27689,-0.27699 -0.4577,-0.62306 -0.18362,-0.36347 -0.24534,-0.74659 l -0.008,-0.0522 1.35832,-0.21883 0.003,0.0174 q 0.0533,0.33087 0.27233,0.58144 0.23645,0.24777 0.54313,0.37703 0.30388,0.11184 0.62576,0.11359 0.33928,-0.001 0.67016,-0.0544 0.31346,-0.0505 0.6185,-0.15324 0.32246,-0.10554 0.57864,-0.28975 0.25338,-0.20161 0.40286,-0.49369 0.16408,-0.31229 0.11359,-0.62575 -0.0505,-0.31346 -0.26673,-0.54662 -0.20161,-0.25338 -0.47347,-0.38825 -0.27186,-0.13487 -0.58193,-0.17425 -0.29546,-0.0596 -0.60273,-0.0816 -0.30726,-0.022 -0.61453,-0.0439 -0.28985,-0.0248 -0.60273,-0.0816 -0.29546,-0.0596 -0.59373,-0.13661 -0.28366,-0.0972 -0.55551,-0.23211 -0.27466,-0.15228 -0.52011,-0.345 -0.22803,-0.19552 -0.40942,-0.4343 -0.18421,-0.25618 -0.31897,-0.5382 -0.11735,-0.28482 -0.16504,-0.58087 -0.0617,-0.38311 -0.0133,-0.74823 0.063,-0.38534 0.24168,-0.71786 0.17589,-0.34993 0.45569,-0.6094 0.27979,-0.25947 0.60844,-0.43748 0.32584,-0.19542 0.68593,-0.28917 0.3747,-0.11396 0.7404,-0.17287 0.38312,-0.0617 0.75724,-0.0684 0.37131,-0.0241 0.74204,0.0591 0.38534,0.063 0.71786,0.24168 0.34712,0.15848 0.6212,0.41805 0.27408,0.25958 0.43748,0.60844 0.18082,0.34607 0.23973,0.71177 l 0.008,0.0522 -1.35832,0.21883 -0.003,-0.0174 q -0.0505,-0.31345 -0.24931,-0.54942 -0.20162,-0.25338 -0.48808,-0.36803 -0.28927,-0.13206 -0.61115,-0.13381 -0.30446,-0.005 -0.61791,0.046 -0.29605,0.0477 -0.60109,0.15044 -0.28763,0.0999 -0.5236,0.29874 -0.23596,0.19881 -0.36802,0.48808 -0.13207,0.28927 -0.0816,0.60273 0.0589,0.3657 0.3358,0.64269 0.27408,0.25958 0.6156,0.38322 0.34151,0.12365 0.70382,0.15461 0.37693,0.0107 0.73924,0.0417 0.37973,0.0281 0.73024,0.0967 0.36512,0.0484 0.70944,0.18944 0.34151,0.12364 0.65942,0.32256 0.3151,0.18149 0.55716,0.46409 0.25666,0.26238 0.41726,0.59384 0.17801,0.32865 0.23692,0.69435 0.0617,0.38311 -0.001,0.76845 -0.063,0.38534 -0.25629,0.73808 -0.19611,0.33532 -0.49332,0.5976 -0.27979,0.25947 -0.62586,0.44028 -0.34606,0.18082 -0.72356,0.27737 -0.3747,0.11396 -0.75782,0.17568 z"
       id="text57"
       transform="rotate(0.1780366,651.38459,-207.24597)"
       aria-label="mums " /><circle
       style="opacity:1;fill:#000000;fill-opacity:0;fill-rule:nonzero;stroke:#2a2a2a;stroke-width:0;stroke-linecap:butt;stroke-linejoin:round;stroke-miterlimit:400;stroke-dasharray:none;stroke-opacity:1"
       id="path60"
       cx="239.46684"
       cy="227.69209"
       transform="matrix(-0.13839252,0.99037746,0.99037746,0.13839252,0,0)"
       r="68.205658" /><circle
       style="opacity:1;fill:#000000;fill-opacity:0;fill-rule:nonzero;stroke:#2a2a2a;stroke-width:0;stroke-linecap:butt;stroke-linejoin:round;stroke-miterlimit:400;stroke-dasharray:none;stroke-opacity:1"
       id="circle61"
       cx="-259.75629"
       cy="20.368937"
       transform="rotate(-125.08354)"
       r="68.205658" /></g><path
     class="st0"
     d="m 164.36175,186.80524 c -0.45885,-1.18031 -0.91742,-2.35988 -1.37611,-3.53975 l 7.47297,-2.9052 c 1.0924,0.48055 2.33778,1.35491 3.58311,2.22897 z m 12.30236,-7.95201 c -7.38452,-6.18424 -17.56654,-6.75356 -30.15261,-1.86057 -3.53984,1.37615 -6.13991,2.84043 -8.74051,4.3032 l -0.6116,-1.57319 -1.57327,0.61162 -22.63909,23.28938 2.5994,6.68632 c 1.96657,-0.76454 3.84553,-0.58979 5.48434,0.13182 1.63873,0.72163 3.03685,1.98854 3.80144,3.95525 l 21.25385,54.67058 -0.30572,-0.78637 c 0.76454,1.96656 0.58943,3.84559 -0.13171,5.4843 -0.72101,1.63902 -1.98867,3.03691 -3.95524,3.80145 l -0.78669,0.30581 3.05815,7.86633 38.93812,-15.13766 c 12.58606,-4.89298 19.7099,-12.19015 20.97827,-21.7383 1.0933,-7.66929 -1.5273,-20.23326 -8.10224,-37.14579 -6.57489,-16.9124 -13.12864,-27.94731 -19.11501,-32.86431 z m -8.8509,15.66547 c -0.61165,-1.57337 -1.07034,-2.75324 -1.22326,-3.14659 l 11.79944,-4.58715 c 1.00494,1.42029 1.85703,2.44738 2.00992,2.84072 z m 2.90523,7.47299 -1.22327,-3.14658 13.76602,-5.3517 c 0.30572,0.78639 1.15785,1.81364 1.76944,3.38686 z m 3.05807,7.86619 -1.22321,-3.14642 14.55265,-5.65751 c 0.30569,0.78636 0.76452,1.96655 1.37611,3.53976 l -14.55265,5.65751 z m 3.05813,7.86634 -1.37619,-3.5399 14.94597,-5.81041 1.37619,3.53989 z m 17.61078,2.20883 -14.55265,5.6575 -1.37618,-3.53989 14.55264,-5.65753 c 0.91743,2.35991 1.37619,3.53992 1.37619,3.53992 z m -68.9122,-21.20209 -3.53984,1.37618 4.43606,-4.89392 c -0.48096,1.0922 -0.41543,2.42543 -0.89622,3.51774 z m 71.97026,29.06827 -14.55263,5.65753 -1.37612,-3.53978 14.55262,-5.65749 c 0.61161,1.57322 1.07037,2.75322 1.37613,3.53974 z m -9.11522,34.78407 c -0.48094,1.09223 -1.35495,2.33775 -2.5349,2.79646 l -3.14652,1.22327 -1.52903,-3.93311 -3.53983,1.37615 c -1.9666,0.76451 -3.84554,0.58978 -5.48429,-0.13169 -1.63872,-0.72164 -3.03695,-1.9887 -3.80144,-3.95526 0,0 0,0 0,0 l -27.98178,-71.97664 c -0.52408,-2.51278 0.59047,-4.30427 2.95034,-5.22172 l 9.04624,-3.51683 c 1.17987,-0.45867 2.51244,-0.52498 3.60539,-0.0427 1.09239,0.48055 1.94437,1.50786 2.40314,2.68787 l 29.96948,77.08962 v 0 c 0.85219,1.02742 0.91744,2.35987 0.0437,3.60524 z m -63.09634,-55.15608 c -1.24555,-0.87449 -2.33777,-1.35493 -3.97646,-2.07622 l 3.93314,-1.52905 c -0.175,1.87918 0.1308,2.66569 0.0434,3.60525 z m 74.08978,28.69709 -13.37272,5.19877 c -0.6116,-1.57319 -1.07036,-2.75321 -1.37618,-3.53989 l 14.15932,-5.50461 c 0.21833,1.72627 0.28366,3.05908 0.5895,3.84575 z m 1.09155,8.63087 -11.40612,4.43427 c -0.61168,-1.57336 -1.07038,-2.75323 -1.37621,-3.53992 l 12.58607,-4.89297 c 0.0658,1.33322 0.13088,2.6657 0.19635,3.99858 z m -2.60125,9.61352 -6.29304,2.4465 c -0.30571,-0.78638 -0.76452,-1.96653 -0.98277,-3.69269 l 9.43954,-3.66972 c -0.96167,2.18485 -1.68285,3.82358 -2.1637,4.9159 z m -46.62942,16.31677 c -0.066,-1.33324 0.0221,-2.27239 -0.43658,-3.45239 1.39834,1.2675 2.25021,2.29453 2.79652,2.53493 z m -4.32736,9.83196 -0.15314,-0.39395 c 0.63352,-0.69974 1.66086,-1.55089 2.77531,-3.34268 l 9.83286,-3.82265 c 1.48559,0.32769 3.12442,1.04913 4.06394,1.13663 z"
     id="path1"
     style="stroke-width:4.2199" /><g
     id="g54"
     transform="translate(-16.822938,-2.3667196)"><path
       style="opacity:1;fill:#ffffff;fill-opacity:0.4;fill-rule:nonzero;stroke:#cdcdcd;stroke-width:0;stroke-linecap:butt;stroke-linejoin:round;stroke-miterlimit:400;stroke-dasharray:none;stroke-opacity:1"
       d="m 144.04627,17.81491 -9.67095,-10.1799487 11.19794,-5.3444729 5.85347,4.5809767 z"
       id="path55" /><path
       style="opacity:1;fill:#ffffff;fill-opacity:0.4;fill-rule:nonzero;stroke:#cdcdcd;stroke-width:0;stroke-linecap:butt;stroke-linejoin:round;stroke-miterlimit:400;stroke-dasharray:none;stroke-opacity:1"
       d="M 153.49637,27.650143 264.89784,154.82356 224.9472,57.22657 189.31557,29.153157 l 3.59915,-7.918141 -7.4843,-6.139977 z"
       id="path53" /><path
       style="opacity:1;fill:#ffffff;fill-opacity:0.2;fill-rule:nonzero;stroke:#cdcdcd;stroke-width:0;stroke-linecap:butt;stroke-linejoin:round;stroke-miterlimit:400;stroke-dasharray:none;stroke-opacity:1"
       d="M 79.181417,55.42699 321.76447,325.36365 327.52313,314.56616 264.53791,154.40376 153.10507,27.191994 Z"
       id="path54" /><path
       style="opacity:1;fill:#ffffff;fill-opacity:0.2;fill-rule:nonzero;stroke:#cdcdcd;stroke-width:0;stroke-linecap:butt;stroke-linejoin:round;stroke-miterlimit:400;stroke-dasharray:none;stroke-opacity:1"
       d="M 144.45117,18.264804 134.37532,35.37532 91.365037,49.881747 111.47044,17.051414 134.47234,7.7224862 Z"
       id="path56" /><path
       style="opacity:1;fill:#808080;fill-opacity:0.2;fill-rule:nonzero;stroke:#cdcdcd;stroke-width:0;stroke-linecap:butt;stroke-linejoin:round;stroke-miterlimit:400;stroke-dasharray:none;stroke-opacity:1"
       d="m 70.543443,272.09615 134.608407,132.4489 -43.90969,17.27595 -5.75865,-7.91814 -38.15105,-18.71562 z"
       id="path57" /></g><g
     id="g53"
     transform="translate(-16.822938,-0.33072916)"><path
       id="path25"
       style="display:inline;opacity:1;fill:#cccccc;fill-opacity:0;fill-rule:nonzero;stroke:#000000;stroke-width:4.23333;stroke-linecap:butt;stroke-linejoin:round;stroke-miterlimit:400;stroke-dasharray:none;stroke-opacity:1"
       d="m 211.74293,183.23907 54.46272,-20.86889 z m 19.34191,54.46273 57.00771,-22.9049 z M 81.948591,296.23649 139.9743,273.33162 Z M 61.650446,242.40098 119.6144,219.88687 Z M 224.49868,211.93902 c 17.25682,48.25041 9.46934,94.4557 -17.39382,103.2024 -26.86316,8.74671 -62.62948,-23.27738 -79.8863,-71.5278 -17.25682,-48.25041 -9.46934,-94.45571 17.39382,-103.20241 26.86316,-8.7467 62.62948,23.27739 79.8863,71.52781 z m -98.26731,187.6876 29.52185,14.18828 6.10797,7.12597 150.66324,-58.02569 -0.509,-10.68896 11.19795,-29.01286 z M 22.523142,137.81105 118.97815,396.509 l 7.69859,3.18123 196.53663,-76.47687 4.07198,-9.16194 L 225.48587,57.516705 Z m -2.163239,-50.772495 -1.017995,-9.16195 166.442162,-63.115681 7.63496,7.125962 -4.07198,7.634962 L 26.467872,93.146525 Z M 26.453759,93.073313 22.504506,137.69471 225.45141,57.463995 189.37792,29.299549 Z M 132.84833,15.778919 h -7.12596 l -12.21594,11.197941 4.07198,5.089975 7.63496,-4.07198 7.63496,-7.125964 z M 89.583552,49.881745 111.97944,16.796911 145.06427,2.544984 l 6.61697,4.07198 -17.15345,27.465691 z" /></g><style
     type="text/css"
     id="style1">
	.st0{fill:#F280A1;}
</style><style
     type="text/css"
     id="style1-7">
	.st0{fill:#F280A1;}
</style></svg>
