<svg width="1179.881" height="1597.996" viewBox="0 0 312.177 422.803" xml:space="preserve" xmlns="http://www.w3.org/2000/svg"><path style="display:inline;opacity:1;fill:#ccc;fill-opacity:1;fill-rule:nonzero;stroke:#000;stroke-width:0;stroke-linecap:butt;stroke-linejoin:round;stroke-miterlimit:400;stroke-dasharray:none;stroke-opacity:1" d="m211.743 183.24 54.463-20.87zm19.342 54.462 57.008-22.905zM81.949 296.236l58.025-22.904ZM60.57 243.301l59.043-23.414Zm163.928-31.362a92.801 51.123 69.603 0 1-17.394 103.202 92.801 51.123 69.603 0 1-79.886-71.527 92.801 51.123 69.603 0 1 17.393-103.203A92.801 51.123 69.603 0 1 224.5 211.94zM126.23 399.627l29.522 14.188 6.108 7.126 150.663-58.026-.509-10.689 11.198-29.013zM22.523 137.81l96.455 258.698 7.699 3.181 196.536-76.477 4.072-9.162-101.8-256.534ZM20.36 87.04l-1.018-9.162L185.784 14.76l7.635 7.126-4.072 7.635-162.88 63.625zm5.599 5.09-3.454 45.566L225.45 57.464l-36.613-29.47Zm106.89-76.35h-7.127l-12.216 11.198 4.072 5.09 7.635-4.072 7.635-7.126zM89.583 49.882l22.395-33.085 33.085-14.252 6.617 4.072-17.815 27.995z" transform="translate(-17.225 -.254)"/><path style="opacity:1;fill:#96c;fill-opacity:1;fill-rule:nonzero;stroke:#96c;stroke-width:5;stroke-linecap:butt;stroke-linejoin:round;stroke-miterlimit:400;stroke-dasharray:none;stroke-opacity:1" d="M312.557 1104.725c-.493-1.323-15.938-42.66-34.323-91.86-28.74-76.916-41.15-90.681-38.466-91.943 1.717-.807 55.8-18.06 110.207-39.586l98.924-39.14 7.173 28.102c11.579 45.362 28.91 90.42 51.579 134.103 6.452 12.434 11.523 22.745 11.268 22.913-1.729 1.144-202.769 79.816-203.962 79.816-.827 0-1.907-1.083-2.4-2.405zm564.651-237.813c-10.607-46.276-29.64-98.462-51.997-142.571-7.229-14.261-12.928-26.144-12.666-26.406.501-.501 172.088-66.47 184.324-70.866l7.089-2.547 35.921 90.466c19.757 49.756 36.805 91.292 35.898 92.144s-46.26 18.722-98.798 39.866l-95.523 38.444zm-151.947 318.159c-109.615-21.872-224.6-178.462-259.755-353.742-13.317-66.398-12.884-138.473 1.135-188.79 6.21-22.289 21.076-52.643 32.976-67.332 25.786-31.829 62.502-46.033 100.787-38.992 104.609 19.24 212.264 154.575 255.705 321.449 4.18 16.057 8.015 32.657 8.523 36.889s2.384 15.053 4.167 24.047c4.864 24.52 4.972 109.672.171 133.702-15.378 76.967-49.427 121.965-100.424 132.72-16.066 3.387-26.495 3.4-43.285.05z" transform="translate(-17.225 -.254)scale(.26458)"/><g transform="translate(-17.225 -.254)"><path d="m184.175 336.459.96-12.93 6.403.477-.091 1.231-5.031-.374-.324 4.363 4.046.3-.092 1.232-4.046-.301-.362 4.872 5.031.374-.091 1.232zm11.934.458q-.44.025-.884-.022-.427-.047-.842-.2-.414-.154-.765-.418-.333-.281-.583-.639-.25-.374-.379-.791-.13-.435-.154-.875l-.004-.07 1.374-.076.003.052q.022.406.184.785.162.362.476.61t.708.35q.393.084.798.061.405-.022.803-.168.399-.145.665-.443.283-.315.401-.728t.097-.818q-.026-.458-.243-.87-.2-.413-.534-.713-.335-.317-.735-.524-.401-.226-.818-.415t-.817-.396-.768-.47-.703-.58q-.318-.318-.552-.711-.233-.393-.38-.827-.13-.434-.156-.892-.023-.423.041-.85.082-.447.254-.845.19-.399.472-.733.3-.334.676-.55.376-.232.795-.326.435-.112.875-.136.423-.024.85.023.444.047.842.219.397.155.713.438.334.281.566.657.232.358.344.776.129.417.152.84l.004.07-1.374.076-.003-.053q-.02-.37-.164-.733-.145-.38-.423-.63-.28-.267-.674-.369-.377-.103-.764-.082-.388.022-.768.184t-.627.476q-.249.297-.35.691-.102.394-.08.8.024.44.225.87.217.412.535.73.334.3.735.525.418.207.817.397.416.171.817.396.418.207.785.47.368.262.686.58t.552.711q.25.375.38.827.149.434.173.874.025.458-.056.904-.083.428-.272.845-.19.4-.507.735-.318.318-.712.534-.377.215-.831.31-.435.113-.876.137zm8.084-1.069-2.15-11.53-2.654.494-.226-1.213 6.658-1.243.227 1.214-2.653.495 2.15 11.531zm9.262-2.164q-.269.087-.547.084-.274.015-.535-.104-.25-.142-.416-.366-.148-.23-.235-.498-.088-.269-.102-.542.002-.28.127-.524.136-.266.366-.415.224-.166.493-.253.268-.087.547-.085.273-.014.523.127.262.12.41.35.166.224.253.492.087.269.085.548.014.273-.122.54-.124.244-.354.393-.225.165-.493.253zm8.003-3.323-4.885-10.294-1.443 2.637-1.148-.568 1.918-3.488 1.243-.59 5.558 11.713zm7.966-4.263q-.385.248-.809.437-.409.18-.855.237t-.89-.014q-.454-.086-.857-.288t-.73-.515q-.338-.328-.577-.699l-.01-.015 1.157-.745q.229.356.567.62.354.256.759.33.404.075.812-.04.408-.117.764-.346.37-.239.64-.602.285-.372.341-.806.061-.46-.074-.897t-.383-.823q-.201-.311-.466-.56-.26-.273-.58-.445-.33-.186-.701-.24-.366-.08-.724-.017-.368.048-.698.22-.34.155-.652.356l-.669-1.038q.282-.181.545-.393.262-.21.448-.477.19-.29.273-.617.074-.341.03-.67-.029-.338-.15-.658-.123-.32-.304-.602-.21-.326-.51-.595-.294-.293-.673-.426t-.792-.056q-.397.067-.738.287-.327.21-.562.529-.23.295-.299.675-.054.371.042.75.112.368.322.695l.02.03-1.157.744-.029-.044q-.23-.356-.384-.76-.14-.413-.178-.83-.047-.43.042-.845.095-.439.311-.788.221-.373.539-.662.308-.303.664-.533.37-.238.774-.394.419-.164.845-.187.43-.047.864.072.425.105.807.34.374.222.687.545.303.308.542.679.258.4.402.852.16.443.196.923.027.465-.112.933-.125.458-.375.85.505-.095 1.037-.018.538.053.999.28.476.218.866.596.396.353.673.783.258.4.427.858.174.434.226.904.041.456-.05.934-.1.463-.331.885-.226.398-.579.73-.338.322-.723.57zm7.096-5.259q-.35.296-.746.538-.382.231-.818.345t-.884.1q-.461-.025-.887-.174-.425-.148-.79-.417-.378-.282-.662-.618l-.012-.014 1.051-.888q.273.323.643.542.383.207.794.23.411.021.801-.146.39-.168.713-.441.337-.285.558-.68.234-.405.233-.843.001-.463-.189-.88-.19-.416-.486-.766-.24-.283-.535-.496-.293-.237-.632-.366-.351-.142-.726-.148-.373-.032-.72.077-.359.095-.664.307-.317.199-.6.438l-.797-.943q.256-.216.489-.46.233-.243.382-.53.152-.314.192-.648.03-.348-.056-.668-.073-.332-.235-.633-.162-.302-.379-.558-.25-.296-.582-.524-.329-.253-.722-.336-.394-.083-.793.046-.385.118-.695.38-.296.25-.488.597-.19.322-.21.709-.006.375.139.737.158.351.408.648l.023.027-1.05.888-.035-.04q-.273-.324-.479-.704-.192-.392-.283-.8-.103-.422-.067-.844.037-.448.206-.821.171-.4.45-.726.266-.34.589-.614.337-.285.717-.49.394-.218.813-.296.422-.102.867-.04.434.05.844.234.399.171.751.451.34.266.625.603.308.364.51.794.215.419.313.89.086.458.009.94-.065.47-.263.891.49-.16 1.027-.152.54-.017 1.026.149.5.155.936.48.438.299.768.69.308.363.534.795.23.407.34.867.1.447.073.933-.04.472-.215.92-.173.424-.48.799-.294.363-.644.659zm4.982-4.831-6.179-10.63-3.46 3.79-.912-.832 4.423-4.846.912.832 6.167 10.644z" style="font-size:17.6389px;font-family:&quot;Iosevka Nerd Font Mono&quot;;-inkscape-font-specification:&quot;Iosevka Nerd Font Mono&quot;;stroke:#cdcdcd;stroke-width:0;stroke-linejoin:round;stroke-miterlimit:400" aria-label="EST.1337"/><path style="font-size:17.6389px;font-family:&quot;Iosevka Nerd Font Mono&quot;;-inkscape-font-specification:&quot;Iosevka Nerd Font Mono&quot;;stroke:#cdcdcd;stroke-width:0;stroke-linejoin:round;stroke-miterlimit:400" d="m127.412 144.48-4.776-7.83 1.175-.717.385.633q-.025-.212-.003-.412.014-.215.085-.403.086-.197.225-.343.153-.156.333-.266.226-.138.483-.19.257-.054.5.004.257.05.482.181.224.132.422.32-.068-.247-.082-.507-.023-.275.036-.517.073-.252.223-.447.165-.204.391-.341t.492-.176q.272-.063.538.002.258.05.477.205.234.146.432.336.189.174.342.39.167.208.305.434l3.619 5.933-1.175.716-3.618-5.933q-.101-.165-.223-.298-.117-.156-.284-.26t-.372-.104q-.191-.008-.357.093-.15.092-.246.274-.08.173-.064.37.017.196.088.38.077.16.178.326l3.618 5.933-1.174.717-3.619-5.934q-.101-.165-.223-.298-.116-.156-.283-.26t-.373-.104q-.19-.008-.341.084-.166.101-.261.283-.08.173-.064.37t.087.38q.077.16.178.326l3.619 5.933zm10.421-5.605q-.403.18-.84.239t-.85-.047q-.405-.129-.765-.374-.367-.261-.661-.575-.285-.337-.505-.702-.212-.388-.384-.775l-2.293-5.158 1.257-.559 2.293 5.158q.122.274.276.533.147.244.342.466.189.206.434.367.261.154.543.222.28.068.575.034.286-.05.56-.172t.503-.3q.222-.196.36-.45.138-.255.183-.545.06-.297.034-.575-.034-.293-.117-.566-.09-.288-.211-.562l-2.293-5.158 1.257-.559 3.726 8.382-1.257.559-.652-1.467q.022.396-.052.795-.073.4-.28.761-.189.355-.517.616-.311.255-.666.412zm5.28-2.38-2.615-8.793 1.319-.392.21.71q.03-.21.103-.398.068-.204.185-.368.134-.169.305-.275.188-.11.39-.17.254-.076.516-.062t.481.133q.237.113.42.298.184.185.327.418-.003-.257.05-.512.048-.272.167-.49.136-.225.33-.375.212-.155.465-.23.254-.076.521-.045.279.01.52.14.236.114.408.32.189.202.332.435.138.217.23.465.11.244.185.498l1.98 6.661-1.318.392-1.98-6.661q-.056-.186-.14-.345-.073-.181-.207-.325-.135-.144-.334-.195-.183-.056-.369-.001-.169.05-.308.202-.122.147-.156.34-.034.195-.013.391.034.174.089.36l1.98 6.661-1.318.393-1.98-6.662q-.056-.186-.14-.345-.072-.18-.207-.325-.135-.144-.334-.195-.183-.056-.352-.006-.186.056-.325.207-.122.147-.156.341t-.013.39q.034.175.09.36l1.98 6.662zm12.012-2.835q-.383.061-.774.07-.39.028-.774-.035-.389-.08-.753-.236-.365-.156-.656-.413-.277-.277-.458-.623-.183-.363-.245-.746l-.008-.053 1.358-.218.003.017q.053.33.273.581.236.248.543.377.304.112.625.114.34-.001.67-.054.314-.05.62-.154.322-.105.578-.29.253-.201.403-.493.164-.312.113-.626-.05-.313-.267-.546-.201-.254-.473-.389t-.582-.174q-.295-.06-.603-.082l-.614-.043q-.29-.025-.603-.082-.295-.06-.594-.137-.283-.097-.555-.232-.275-.152-.52-.345-.228-.195-.41-.434-.184-.256-.319-.538-.117-.285-.165-.581-.061-.383-.013-.748.063-.386.242-.718.176-.35.455-.61.28-.26.609-.437.326-.195.686-.29.374-.113.74-.172.383-.062.757-.069.372-.024.742.06.386.063.718.241.347.159.621.418.275.26.438.609.18.346.24.712l.008.052-1.359.219-.003-.018q-.05-.313-.249-.55-.202-.253-.488-.367-.29-.132-.611-.134-.305-.005-.618.046-.296.048-.601.15-.288.1-.524.3-.236.198-.368.487-.132.29-.081.603.058.366.335.643.274.26.616.383t.704.154q.377.011.739.042.38.028.73.097.365.048.71.19.341.123.66.322.314.181.556.464.257.262.418.594.178.328.236.694.062.383 0 .769-.064.385-.257.738-.196.335-.493.597-.28.26-.626.44-.346.181-.724.278-.374.114-.757.176z" transform="rotate(.178 651.385 -207.246)" aria-label="mums"/><circle style="opacity:1;fill:#000;fill-opacity:0;fill-rule:nonzero;stroke:#2a2a2a;stroke-width:0;stroke-linecap:butt;stroke-linejoin:round;stroke-miterlimit:400;stroke-dasharray:none;stroke-opacity:1" cx="239.467" cy="227.692" transform="scale(-1 1)rotate(82.045)" r="68.206" fill="none"/><circle style="opacity:1;fill:#000;fill-opacity:0;fill-rule:nonzero;stroke:#2a2a2a;stroke-width:0;stroke-linecap:butt;stroke-linejoin:round;stroke-miterlimit:400;stroke-dasharray:none;stroke-opacity:1" cx="-259.756" cy="20.369" transform="rotate(-125.084)" r="68.206" fill="none"/></g><path style="font-size:182.461px;font-family:&quot;Iosevka Nerd Font Mono&quot;;-inkscape-font-specification:&quot;Iosevka Nerd Font Mono&quot;;fill:#f280a2;stroke:#2a2a2a;stroke-width:0;stroke-linejoin:round;stroke-miterlimit:400" d="M182.562 292.596q-4.62 1.712-9.62 2.397-4.936.856-9.696.09t-9.278-2.983q-4.41-2.452-7.814-5.861-3.467-3.58-5.863-7.946t-4.108-8.986l-21.237-57.316q-1.711-4.62-2.739-9.493t-.666-9.677q.297-4.974 2.109-9.537 1.919-4.798 5.03-8.48t7.414-6.25q4.239-2.738 8.858-4.45 4.62-1.71 9.62-2.396 4.936-.856 9.696-.09t9.17 3.218q4.519 2.217 7.985 5.797 3.404 3.41 5.8 7.775t4.108 8.986l21.237 57.316q1.711 4.62 2.739 9.493t.73 9.848q-.36 4.803-2.28 9.6-1.812 4.564-4.923 8.246t-7.414 6.25q-4.239 2.738-8.859 4.45zm-40.514-48.422 27.966-46.36-2.029-5.475q-1.077-2.909-2.497-5.69-1.42-2.783-3.461-5.14t-4.81-4.055q-2.599-1.761-5.565-2.414-3.03-.823-6.191-.43-3.162.394-6.071 1.471-2.909 1.078-5.564 2.84t-4.416 4.36q-1.825 2.428-2.82 5.52-.823 3.03-.835 6.148t.723 6.153q.736 3.035 1.813 5.944zm36.076 36.446q2.908-1.078 5.564-2.84 2.655-1.762 4.48-4.19 1.76-2.598 2.584-5.627.995-3.093 1.007-6.21t-.723-6.154-1.814-5.944l-13.756-37.127-27.966 46.36 2.029 5.475q1.077 2.908 2.497 5.69t3.46 5.139q2.042 2.357 4.64 4.118 2.77 1.698 5.8 2.522 2.965.652 6.127.259t6.07-1.471z" aria-label="0"/><path style="opacity:1;fill:#fff;fill-opacity:.4;fill-rule:nonzero;stroke:#cdcdcd;stroke-width:0;stroke-linecap:butt;stroke-linejoin:round;stroke-miterlimit:400;stroke-dasharray:none;stroke-opacity:1" d="m144.046 17.815-9.67-10.18 11.197-5.345 5.854 4.581zm9.45 9.835 111.402 127.174-39.95-97.597-35.632-28.074 3.599-7.918-7.485-6.14z" transform="translate(-17.225 -2.29)"/><path style="opacity:1;fill:#fff;fill-opacity:.2;fill-rule:nonzero;stroke:#cdcdcd;stroke-width:0;stroke-linecap:butt;stroke-linejoin:round;stroke-miterlimit:400;stroke-dasharray:none;stroke-opacity:1" d="m79.181 55.427 242.583 269.937 5.76-10.798-62.986-160.162L153.105 27.192Z" transform="translate(-17.225 -2.29)"/><path style="opacity:1;fill:#fff;fill-opacity:.2;fill-rule:nonzero;stroke:#cdcdcd;stroke-width:0;stroke-linecap:butt;stroke-linejoin:round;stroke-miterlimit:400;stroke-dasharray:none;stroke-opacity:1" d="m134.472 7.722-23.002 9.33-20.105 32.83 43.01-14.506 10.076-17.111zm-6.418 11.308c.723-.023 1.155.255 1.294.6l.2.018c.561.064 1.12.162 1.602.48.637.524.901 1.102.714 1.932a4.7 4.7 0 0 1-.968 1.69c-.444.498-.971.879-1.544 1.218-.466.324-.945.63-1.403.963-.335.248-.698.449-1.04.685-.307.207-.632.378-.93.598-.305.228-.605.46-.893.709-.306.26-.63.5-.879.82-.289.33-.607.63-.852.998-.283.307-.548.624-.828.933-.381.325-.794.61-1.23.86-.473.218-.954.412-1.476.475a6 6 0 0 1-1.593-.104c-.648-.151-1.254-.4-1.637-.977-.06-.12-.135-.231-.178-.357-.165-.483-.086-.981-.007-1.47.098-.492.237-.97.51-1.397.238-.372.528-.702.819-1.035.3-.294.609-.576.88-.898.317-.321.64-.636.936-.978.356-.414.694-.84 1.045-1.26.302-.285.541-.636.841-.925.311-.327.56-.716.933-.984.352-.329.676-.69 1.071-.969.431-.341.86-.69 1.352-.943.47-.24.96-.4 1.481-.49a14 14 0 0 1 1.78-.192zm2.066 2.434v.001l-.01.04.02.018a.4.4 0 0 0-.009-.058zm-1.344.515-.004.001c-.029.004-.05.04-.067.065l-.026.042.05-.04c.013-.017.056-.048.059-.06v-.004h-.001l-.003-.002h-.004zm-1.696 1.203-.108.053-.103.056q.008.015.013.032.098-.072.198-.141zm-7.792 6.096a.8.8 0 0 0-.037.18v.005h.001c.007-.009.023-.06.03-.078q.009-.055.006-.107z" transform="translate(-17.225 -2.29)"/><path style="opacity:1;fill:gray;fill-opacity:.2;fill-rule:nonzero;stroke:#cdcdcd;stroke-width:0;stroke-linecap:butt;stroke-linejoin:round;stroke-miterlimit:400;stroke-dasharray:none;stroke-opacity:1" d="m70.543 272.096 134.609 132.45-43.91 17.275-5.758-7.918-38.152-18.716z" transform="translate(-17.225 -2.29)"/><path style="display:inline;opacity:1;fill:#ccc;fill-opacity:0;fill-rule:nonzero;stroke:#000;stroke-width:4.23333;stroke-linecap:butt;stroke-linejoin:round;stroke-miterlimit:400;stroke-dasharray:none;stroke-opacity:1" d="m211.743 183.24 54.463-20.87zm19.854 54.206 56.224-22.581zM81.95 296.236l58.025-22.904Zm-20.3-53.835 57.964-22.514Zm162.85-30.462c17.256 48.25 9.469 94.456-17.394 103.202-26.863 8.747-62.63-23.277-79.886-71.527-17.257-48.25-9.47-94.456 17.393-103.203 26.864-8.746 62.63 23.278 79.887 71.528zm-98.27 187.688 29.522 14.188 6.108 7.126 150.663-58.026-.509-10.689 11.198-29.013zM22.523 137.81l96.455 258.698 7.699 3.181 196.536-76.477 4.072-9.162-101.8-256.534ZM20.36 87.04l-1.018-9.162L185.784 14.76l7.635 7.126-4.072 7.635-162.88 63.625Zm6.094 6.034-3.95 44.622 202.947-80.231L189.378 29.3ZM132.848 15.78h-7.126l-12.216 11.198 4.072 5.09 7.635-4.072 7.635-7.126zM89.584 49.882l22.395-33.085 33.085-14.252 6.617 4.072-17.153 27.466z" transform="translate(-17.225 -.254)" fill="none"/></svg>